<?xml version="1.0" encoding="UTF-8" standalone="no"?>
<svg opacity="0.2" width="17px" height="25px" viewBox="0 0 17 25" version="1.1" xmlns="http://www.w3.org/2000/svg" xmlns:xlink="http://www.w3.org/1999/xlink">
    <!-- Generator: Sketch 47.1 (45422) - http://www.bohemiancoding.com/sketch -->
    <title>Group 18</title>
    <desc>Created with Sketch.</desc>
    <defs></defs>
    <g id="Template---Locations" stroke="none" stroke-width="1" fill="none" fill-rule="evenodd">
        <g id="Locations" transform="translate(-241.000000, -1014.000000)">
            <g id="station-map" transform="translate(14.000000, 958.000000)">
                <g id="stations" transform="translate(0.000000, 2.000000)">
                    <g id="map-key" transform="translate(18.000000, -2.000000)">
                        <g transform="translate(15.000000, 15.000000)" id="locker">
                            <g transform="translate(192.000000, 39.000000)">
                                <g id="Page-1">
                                    <g id="Group-18" transform="translate(2.000000, 1.613179)">
                                        <polygon id="Fill-8" fill="#4F2683" points="0.882303723 19.6703105 9.02293374 19.6703105 9.02293374 11.5296805 0.882303723 11.5296805"></polygon>
                                        <path d="M8.15182088,15.6008491 C8.15182088,15.9664803 7.85447875,16.2638225 7.48884752,16.2638225 C7.1217936,16.2638225 6.82445147,15.9664803 6.82445147,15.6008491 C6.82445147,15.2352179 7.1217936,14.9378757 7.48884752,14.9378757 C7.85447875,14.9378757 8.15182088,15.2352179 8.15182088,15.6008491" id="Fill-9" fill="#00B5CC"></path>
                                        <polygon id="Fill-10" fill="#553B78" points="0.882303723 9.00013832 9.02293374 9.00013832 9.02293374 0.859508303 0.882303723 0.859508303"></polygon>
                                        <polygon id="Fill-11" fill="#B9A8CD" points="9.71151552 9.00013832 15.1419218 9.00013832 15.1419218 0.859508303 9.71151552 0.859508303"></polygon>
                                        <polygon id="Fill-12" fill="#140A21" points="9.02293374 3.94247671 9.71009283 3.94247671 9.71009283 2.16411469 9.02293374 2.16411469"></polygon>
                                        <polygon id="Fill-13" fill="#140A21" points="9.02293374 8.24042206 9.71009283 8.24042206 9.71009283 6.46206003 9.02293374 6.46206003"></polygon>
                                        <polygon id="Fill-14" fill="#3B1C62" points="15.1419218 9.00013832 16.0311028 9.00013832 16.0311028 0.859508303 15.1419218 0.859508303"></polygon>
                                        <polygon id="Fill-15" fill="#3B1C62" points="12.7603394 5.63547736 14.5671552 5.63547736 14.5671552 3.82723885 12.7603394 3.82723885"></polygon>
                                        <polygon id="Fill-16" fill="#72519C" points="0.846153846 24.9045371 3.34155144 24.9045371 3.34155144 23.7692308 0.846153846 23.7692308"></polygon>
                                        <polygon id="Fill-17" fill="#72519C" points="6.98147197 24.9541797 9.47686957 24.9541797 9.47686957 23.8188734 6.98147197 23.8188734"></polygon>
                                    </g>
                                </g>
                            </g>
                        </g>
                    </g>
                </g>
            </g>
        </g>
    </g>
</svg>