<?xml version="1.0" encoding="UTF-8" standalone="no"?>
<svg opacity="0.2" width="19px" height="28px" viewBox="0 0 19 28" version="1.1" xmlns="http://www.w3.org/2000/svg" xmlns:xlink="http://www.w3.org/1999/xlink">
    <!-- Generator: Sketch 47.1 (45422) - http://www.bohemiancoding.com/sketch -->
    <title>Page 1</title>
    <desc>Created with Sketch.</desc>
    <defs></defs>
    <g id="Template---Locations" stroke="none" stroke-width="1" fill="none" fill-rule="evenodd">
        <g id="Locations" transform="translate(-240.000000, -974.000000)">
            <g id="station-map" transform="translate(14.000000, 958.000000)">
                <g id="stations" transform="translate(0.000000, 2.000000)">
                    <g id="map-key" transform="translate(18.000000, -2.000000)">
                        <g transform="translate(15.000000, 15.000000)" id="carwash">
                            <g transform="translate(193.000000, 1.000000)">
                                <g id="Page-1">
                                    <path d="M17.5715,22.7471 C17.5715,22.9041 17.4435,23.0331 17.2855,23.0331 L13.8095,23.0331 C13.6525,23.0331 13.5245,22.9041 13.5245,22.7471 L13.5245,20.9751 C13.5245,20.8161 13.6525,20.6881 13.8095,20.6881 L17.2855,20.6881 C17.4435,20.6881 17.5715,20.8161 17.5715,20.9751 L17.5715,22.7471 Z M6.2045,19.8531 L12.4955,19.8531 L12.4955,19.4071 L6.2045,19.4071 L6.2045,19.8531 Z M6.2045,20.9121 L12.4955,20.9121 L12.4955,20.4651 L6.2045,20.4651 L6.2045,20.9121 Z M6.2045,21.9701 L12.4955,21.9701 L12.4955,21.5231 L6.2045,21.5231 L6.2045,21.9701 Z M6.2045,23.0271 L12.4955,23.0271 L12.4955,22.5801 L6.2045,22.5801 L6.2045,23.0271 Z M5.1755,22.7471 C5.1755,22.9041 5.0475,23.0331 4.8895,23.0331 L1.4135,23.0331 C1.2565,23.0331 1.1285,22.9041 1.1285,22.7471 L1.1285,20.9751 C1.1285,20.8161 1.2565,20.6881 1.4135,20.6881 L4.8895,20.6881 C5.0475,20.6881 5.1755,20.8161 5.1755,20.9751 L5.1755,22.7471 Z M3.3095,14.0601 C3.3435,13.9061 3.4985,13.7811 3.6565,13.7811 L15.0435,13.7811 C15.2005,13.7811 15.3555,13.9061 15.3895,14.0601 L16.5685,18.4861 L2.1315,18.4861 L3.3095,14.0601 Z M18.0375,18.5091 L16.6635,13.1901 C16.5615,12.7271 16.0955,12.3511 15.6225,12.3511 L3.0775,12.3511 C2.6045,12.3511 2.1375,12.7271 2.0365,13.1901 L0.6625,18.5091 C0.2825,18.5981 0.0005,18.9371 0.0005,19.3451 L0.0005,24.0251 C0.0005,24.4991 0.3845,24.8841 0.8575,24.8841 L17.8425,24.8841 C18.3155,24.8841 18.6995,24.4991 18.6995,24.0251 L18.6995,19.3451 C18.6995,18.9371 18.4165,18.5981 18.0375,18.5091 L18.0375,18.5091 Z" id="Fill-1" fill="#4F2683"></path>
                                    <path d="M13.9386,25.084 L13.9386,27.428 C13.9386,27.744 14.1946,28 14.5106,28 L17.1126,28 C17.4286,28 17.6846,27.744 17.6846,27.428 L17.6846,25.084 L13.9386,25.084 Z M4.1886,28 L1.5866,28 C1.2716,28 1.0156,27.744 1.0156,27.428 L1.0156,25.084 L4.7606,25.084 L4.7606,27.428 C4.7606,27.744 4.5046,28 4.1886,28 L4.1886,28 Z" id="Fill-3" fill="#4F2683"></path>
                                    <path d="M10.4103,18.2539 C10.5243,17.2489 11.3793,16.4669 12.4123,16.4669 C13.4463,16.4669 14.3013,17.2489 14.4153,18.2539 L15.1903,18.2539 C15.0743,16.8229 13.8733,15.6939 12.4123,15.6939 C10.9523,15.6939 9.7513,16.8229 9.6343,18.2539 L10.4103,18.2539 Z" id="Fill-5" fill="#4F2683"></path>
                                    <path d="M10.6105,0.29 C10.6105,0.13 10.4805,0 10.3205,0 L8.3785,0 C8.2185,0 8.0885,0.13 8.0885,0.29 L8.0885,0.899 C6.7125,1.335 5.6455,2.464 5.2975,3.877 L13.4025,3.877 C13.0535,2.464 11.9865,1.335 10.6105,0.899 L10.6105,0.29 Z" id="Fill-7" fill="#4F2683"></path>
                                    <path d="M13.4689,4.8569 L5.2649,4.8569 C5.1849,4.8569 5.1209,4.7919 5.1209,4.7119 L5.1209,4.1819 C5.1209,4.1019 5.1849,4.0369 5.2649,4.0369 L13.4689,4.0369 C13.5489,4.0369 13.6139,4.1019 13.6139,4.1819 L13.6139,4.7119 C13.6139,4.7919 13.5489,4.8569 13.4689,4.8569" id="Fill-9" fill="#4F2683"></path>
                                    <path d="M7.215,6.46 C7.215,6.772 6.989,7.025 6.711,7.025 C6.433,7.025 6.207,6.772 6.207,6.46 C6.207,6.148 6.711,5.483 6.711,5.483 C6.711,5.483 7.215,6.148 7.215,6.46" id="Fill-11" fill="#00B5CC"></path>
                                    <path d="M9.8742,6.46 C9.8742,6.772 9.6482,7.025 9.3702,7.025 C9.0922,7.025 8.8662,6.772 8.8662,6.46 C8.8662,6.148 9.3702,5.483 9.3702,5.483 C9.3702,5.483 9.8742,6.148 9.8742,6.46" id="Fill-13" fill="#00B5CC"></path>
                                    <path d="M12.5334,6.46 C12.5334,6.772 12.3074,7.025 12.0294,7.025 C11.7514,7.025 11.5254,6.772 11.5254,6.46 C11.5254,6.148 12.0294,5.483 12.0294,5.483 C12.0294,5.483 12.5334,6.148 12.5334,6.46" id="Fill-15" fill="#00B5CC"></path>
                                    <path d="M5.8649,8.7236 C5.8649,9.0356 5.6389,9.2886 5.3609,9.2886 C5.0829,9.2886 4.8569,9.0356 4.8569,8.7236 C4.8569,8.4116 5.3609,7.7466 5.3609,7.7466 C5.3609,7.7466 5.8649,8.4116 5.8649,8.7236" id="Fill-17" fill="#00B5CC"></path>
                                    <path d="M8.5241,8.7236 C8.5241,9.0356 8.2981,9.2886 8.0201,9.2886 C7.7421,9.2886 7.5161,9.0356 7.5161,8.7236 C7.5161,8.4116 8.0201,7.7466 8.0201,7.7466 C8.0201,7.7466 8.5241,8.4116 8.5241,8.7236" id="Fill-19" fill="#00B5CC"></path>
                                    <path d="M11.1838,8.7236 C11.1838,9.0356 10.9568,9.2886 10.6798,9.2886 C10.4018,9.2886 10.1758,9.0356 10.1758,8.7236 C10.1758,8.4116 10.6798,7.7466 10.6798,7.7466 C10.6798,7.7466 11.1838,8.4116 11.1838,8.7236" id="Fill-21" fill="#00B5CC"></path>
                                    <path d="M13.8429,8.7236 C13.8429,9.0356 13.6169,9.2886 13.3389,9.2886 C13.0609,9.2886 12.8349,9.0356 12.8349,8.7236 C12.8349,8.4116 13.3389,7.7466 13.3389,7.7466 C13.3389,7.7466 13.8429,8.4116 13.8429,8.7236" id="Fill-23" fill="#00B5CC"></path>
                                    <path d="M4.5353,11.0024 C4.5353,11.3144 4.3093,11.5674 4.0313,11.5674 C3.7533,11.5674 3.5273,11.3144 3.5273,11.0024 C3.5273,10.6904 4.0313,10.0254 4.0313,10.0254 C4.0313,10.0254 4.5353,10.6904 4.5353,11.0024" id="Fill-25" fill="#00B5CC"></path>
                                    <path d="M7.1945,11.0024 C7.1945,11.3144 6.9685,11.5674 6.6905,11.5674 C6.4125,11.5674 6.1865,11.3144 6.1865,11.0024 C6.1865,10.6904 6.6905,10.0254 6.6905,10.0254 C6.6905,10.0254 7.1945,10.6904 7.1945,11.0024" id="Fill-27" fill="#00B5CC"></path>
                                    <path d="M9.8537,11.0024 C9.8537,11.3144 9.6277,11.5674 9.3497,11.5674 C9.0717,11.5674 8.8457,11.3144 8.8457,11.0024 C8.8457,10.6904 9.3497,10.0254 9.3497,10.0254 C9.3497,10.0254 9.8537,10.6904 9.8537,11.0024" id="Fill-29" fill="#00B5CC"></path>
                                    <path d="M12.5129,11.0024 C12.5129,11.3144 12.2869,11.5674 12.0089,11.5674 C11.7309,11.5674 11.5049,11.3144 11.5049,11.0024 C11.5049,10.6904 12.0089,10.0254 12.0089,10.0254 C12.0089,10.0254 12.5129,10.6904 12.5129,11.0024" id="Fill-31" fill="#00B5CC"></path>
                                    <path d="M15.172,11.0024 C15.172,11.3144 14.946,11.5674 14.668,11.5674 C14.39,11.5674 14.164,11.3144 14.164,11.0024 C14.164,10.6904 14.668,10.0254 14.668,10.0254 C14.668,10.0254 15.172,10.6904 15.172,11.0024" id="Fill-33" fill="#00B5CC"></path>
                                </g>
                            </g>
                        </g>
                    </g>
                </g>
            </g>
        </g>
    </g>
</svg>