<?xml version="1.0" encoding="UTF-8" standalone="no"?>
<svg width="19px" height="16px" viewBox="0 0 19 16" version="1.1" xmlns="http://www.w3.org/2000/svg" xmlns:xlink="http://www.w3.org/1999/xlink">
    <!-- Generator: Sketch 47.1 (45422) - http://www.bohemiancoding.com/sketch -->
    <title>Page 1</title>
    <desc>Created with Sketch.</desc>
    <defs>
        <polygon id="path-1" points="0.000249056593 15.6499996 18.6872174 15.6499996 18.6872174 0 0.000249056593 0"></polygon>
    </defs>
    <g id="Template---Locations" stroke="none" stroke-width="1" fill="none" fill-rule="evenodd">
        <g id="Locations" transform="translate(-240.000000, -1087.000000)">
            <g id="station-map" transform="translate(14.000000, 958.000000)">
                <g id="stations" transform="translate(0.000000, 2.000000)">
                    <g id="map-key" transform="translate(18.000000, -2.000000)">
                        <g transform="translate(15.000000, 15.000000)" id="Group">
                            <g transform="translate(193.000000, 112.000000)">
                                <g id="Page-1" transform="translate(0.000000, 2.000000)">
                                    <path d="M14.4247164,3.48592563 C14.2743647,3.40152742 14.1564307,3.33222028 14.0619718,3.27465063 C14.0312307,3.25564706 13.997695,3.23496671 13.9636004,3.21316849 C13.9803682,3.81122205 14.3179611,4.33046668 14.8109361,4.60266489 L14.8109361,4.09459883 C14.6264896,3.9375399 14.4901111,3.72626491 14.4247164,3.48592563" id="Fill-1" fill="#4F2683"></path>
                                    <path d="M17.2411574,3.16605082 C17.2411574,2.26170441 16.5056075,1.52615443 15.6007021,1.52615443 C15.1591486,1.52615443 14.7583968,1.70221692 14.4632825,1.98727049 C14.5856879,2.0129812 14.748895,2.05378299 14.9802914,2.11750084 C15.1625021,2.0090687 15.3743361,1.94535085 15.6007021,1.94535085 C16.274211,1.94535085 16.8214021,2.49310083 16.8214021,3.16605082 C16.8214021,3.53773831 16.6537235,3.87085973 16.3910271,4.09499008 L16.3910271,4.60249721 C16.8968574,4.32303293 17.2411574,3.7842258 17.2411574,3.16605082" id="Fill-3" fill="#4F2683"></path>
                                    <path d="M15.9650118,3.3210976 C16.0443796,3.12826725 15.9527153,2.90804939 15.759885,2.82868154 C15.7146118,2.80967797 15.665985,2.80073511 15.6173582,2.80073511 C15.5497278,2.80073511 15.4820975,2.81862082 15.42341,2.85327439 C14.7090993,2.6459119 14.2831957,2.53300833 14.1417868,2.53300833 C13.9405725,2.53300833 14.3144957,2.76161011 15.2518189,3.27191188 C15.2998868,3.45747617 15.4586225,3.55417081 15.6179171,3.55417081 C15.7587671,3.55417081 15.900176,3.47815652 15.9650118,3.3210976" id="Fill-5" fill="#4F2683"></path>
                                    <g id="Group-9">
                                        <mask id="mask-2" fill="white">
                                            <use xlink:href="#path-1"></use>
                                        </mask>
                                        <g id="Clip-8"></g>
                                        <path d="M15.6009257,5.35157326 C14.3941989,5.35157326 13.415515,4.37344829 13.415515,3.1661626 C13.415515,1.95887692 14.3941989,0.980193012 15.6009257,0.980193012 C16.8076524,0.980193012 17.7863364,1.95887692 17.7863364,3.1661626 C17.7863364,4.37344829 16.8076524,5.35157326 15.6009257,5.35157326 L15.6009257,5.35157326 Z M9.07375799,12.1313767 C8.39186515,13.2436445 7.57527053,13.6237159 6.84530983,12.5282159 C6.5803777,12.1313767 6.35065806,11.6255463 6.16956521,11.0319642 C5.51561879,8.88344282 5.63578843,6.13742681 6.37748663,4.24098222 C7.33269554,1.78952156 8.54668836,2.1953037 9.37949191,3.99505365 C10.1742883,5.71487682 9.95351154,10.697166 9.07375799,12.1313767 L9.07375799,12.1313767 Z M5.01370095,15.2434909 C5.01370095,15.2434909 4.60400632,14.733748 4.45030096,14.5336516 C4.70573131,14.4716105 5.13163487,14.4224248 5.39321344,14.3542355 C5.59219201,14.639848 6.10193485,15.2295177 6.10193485,15.2295177 L5.01370095,15.2434909 Z M3.80362062,15.1613284 C3.79914919,15.1607695 3.79467776,15.1596516 3.79020634,15.1590927 C3.76337777,15.1546212 3.73543134,15.1495909 3.70804384,15.1451195 C3.54930813,15.117732 3.36933313,15.085873 3.16588314,15.0478659 C2.9439885,14.8527998 2.7327135,14.6107838 2.53373494,14.3251713 C2.63434208,14.3458516 2.767926,14.3732391 2.92889743,14.405657 C2.93672243,14.4073338 2.94454743,14.4090105 2.95293136,14.4106873 C2.97249386,14.4145998 2.99317421,14.4185123 3.01329564,14.4229838 C3.16420635,14.4531659 3.33523849,14.4867016 3.52471527,14.5235909 C3.74940455,14.8153516 3.9891849,15.0540141 4.2395849,15.2328712 C4.12388669,15.2144266 3.97856526,15.1909516 3.80362062,15.1613284 L3.80362062,15.1613284 Z M1.44941354,12.3560659 C1.44941354,12.3560659 1.69590103,12.3912784 2.55162065,12.6539749 C2.71426886,13.1083838 2.89871529,13.5186373 3.10216528,13.8785873 C2.06982424,13.5443481 1.92003138,13.5337284 1.92003138,13.5337284 C1.7462046,13.1793677 1.58802782,12.7853231 1.44941354,12.3560659 L1.44941354,12.3560659 Z M0.910606406,9.75704816 C0.907811764,9.73021958 0.904458192,9.70339101 0.901663549,9.67656244 C1.2196939,9.81182315 1.60591353,9.91187137 1.9496546,10.0549571 C2.02566888,10.6407142 2.13130638,11.1912588 2.26209566,11.7010017 C2.00554745,11.5769195 1.56119925,11.4355106 1.14703319,11.2242356 C1.0475439,10.7631196 0.967617119,10.2729392 0.910606406,9.75704816 L0.910606406,9.75704816 Z M0.855831408,6.7399518 C1.37842961,6.97861429 1.53045818,6.97861429 1.83842781,7.10996251 C1.80824567,7.69013035 1.84234031,8.87953032 1.84234031,8.87953032 L0.81614748,8.33736962 C0.81614748,8.33736962 0.817824266,7.26310893 0.855831408,6.7399518 L0.855831408,6.7399518 Z M1.2940314,4.04423937 L2.22073495,4.36953579 C2.22073495,4.36953579 2.00275281,5.42255719 1.93512245,5.98204468 C1.67354389,5.81380718 1.25993676,5.64556968 0.99835819,5.47733219 C1.0749314,4.97932684 1.2940314,4.04423937 1.2940314,4.04423937 L1.2940314,4.04423937 Z M2.22129387,1.84988585 C2.45157244,1.92701799 2.74333315,2.00023763 3.02279743,2.0974912 C2.82437779,2.48930012 2.49293315,3.3970001 2.49293315,3.3970001 L1.63218317,3.05158225 C1.63218317,3.05158225 2.03237602,2.18915548 2.22129387,1.84988585 L2.22129387,1.84988585 Z M3.40901706,0.493366238 L4.24852775,0.479393024 L3.44199384,1.3831805 L2.71985815,1.16911086 L3.40901706,0.493366238 Z M4.64369024,3.00463225 C4.28206347,3.14715903 3.78126348,3.25670903 3.41851885,3.40706081 C3.5722242,2.93644296 3.75052241,2.49991976 3.94894205,2.10811084 C4.2708849,2.0309787 4.82813667,1.95328763 5.15622773,1.87895013 C4.96842774,2.2187787 4.79627774,2.59605547 4.64369024,3.00463225 L4.64369024,3.00463225 Z M4.46092061,12.3851302 C4.59953489,12.8149463 4.7582706,13.2089909 4.93209738,13.5627927 C4.69511167,13.6801677 4.27367954,13.7740677 4.02775097,13.8886481 C3.82541884,13.5286981 3.64041348,13.1184445 3.4783242,12.6645945 C3.58675634,12.6249106 4.06016883,12.5365999 4.46092061,12.3851302 L4.46092061,12.3851302 Z M3.83771526,9.70618566 C3.83995098,9.72686601 3.84106883,9.7402803 3.84218669,9.74978208 C3.84274562,9.75537137 3.84386348,9.76654994 3.84609919,9.78667137 C3.9031099,10.3020035 4.0596099,10.7927428 4.15854026,11.2538588 C3.99589205,11.3555838 3.51409563,11.5132017 3.18824028,11.7116213 C3.057451,11.2013195 2.9518135,10.6507749 2.87579922,10.0655767 C3.34697599,9.8576553 3.49285634,9.85933208 3.83771526,9.70618566 L3.83771526,9.70618566 Z M2.86070814,5.99266432 C2.9283385,5.43317683 3.02503314,4.89213399 3.14632064,4.3795965 C3.39280813,4.29799293 3.84609919,4.22253758 4.3060974,4.07386258 C4.18648668,4.52883043 4.08643847,5.00895006 4.01042419,5.5069554 C3.69854205,5.66848575 3.18041528,5.82051432 2.86070814,5.99266432 L2.86070814,5.99266432 Z M3.86789741,6.76957501 C3.82933134,7.29217322 3.81535812,7.82706784 3.82821348,8.36699283 C3.55433848,8.53690711 3.10495992,8.67496247 2.767926,8.88959103 C2.73494922,8.29377319 2.73439029,7.70074999 2.7640135,7.12002322 C3.06695278,6.99817679 3.41628313,6.94899108 3.86789741,6.76957501 L3.86789741,6.76957501 Z M5.09865809,0.489453738 L5.09977595,0.489453738 C5.09977595,0.489453738 5.97617593,0.487218024 6.34395092,0.446975168 C6.10081699,0.623037663 5.87053843,0.850521586 5.65535093,1.12216087 C5.28142773,1.21382515 4.74876881,1.29095729 4.36813846,1.39380014 C4.57605989,1.08918408 5.09865809,0.489453738 5.09865809,0.489453738 L5.09865809,0.489453738 Z M15.6009257,0.0792001766 C13.8961936,0.0792001766 12.5145222,1.4614305 12.5145222,3.1661626 C12.5145222,4.59757864 13.4892936,5.80151075 14.8111596,6.15028217 L14.8111596,6.52141073 L15.1392507,6.52141073 L15.1392507,11.1079785 C15.1392507,11.7792517 14.5931775,12.3247659 13.9224632,12.3247659 L11.1350865,12.3247659 C11.8220097,10.3422464 11.9712436,7.85389642 11.7627633,5.97030718 C11.4765919,3.38246795 10.4733151,0.34525017 8.04756516,0.0601966057 C7.68537946,0.0177180353 4.59841703,-0.0599730343 3.83883312,0.0792001766 C3.42299027,0.155773389 2.98367243,0.296623386 2.60919029,0.504544809 C0.735661768,1.54247514 -0.345306063,5.64948218 0.100159998,9.67600351 C0.478554631,13.1022356 1.51201353,14.6454373 2.85120636,15.2602587 C3.9774474,15.7772677 5.20094202,15.6213266 7.49199017,15.6464784 L7.49310803,15.6464784 L7.50260982,15.6464784 L7.49981517,15.6464784 C8.80211871,15.6626873 9.76627048,14.9288141 10.450399,13.8098391 C9.86352405,13.6829623 9.4359437,13.5013106 9.4359437,13.2408499 L13.9224632,13.2481159 C15.1023614,13.2481159 16.0626007,12.2878767 16.0626007,11.1079785 L16.0626007,6.52141073 L16.3906917,6.52141073 L16.3906917,6.15028217 C17.7125578,5.80151075 18.6873292,4.59757864 18.6873292,3.1661626 C18.6873292,1.4614305 17.3056578,0.0792001766 15.6009257,0.0792001766 L15.6009257,0.0792001766 Z" id="Fill-7" fill="#4F2683" mask="url(#mask-2)"></path>
                                    </g>
                                </g>
                            </g>
                        </g>
                    </g>
                </g>
            </g>
        </g>
    </g>
</svg>