<?xml version="1.0" encoding="iso-8859-1"?>
<!-- Generator: Adobe Illustrator 23.1.1, SVG Export Plug-In . SVG Version: 6.00 Build 0)  -->
<svg version="1.1" id="Capa_1" xmlns="http://www.w3.org/2000/svg" xmlns:xlink="http://www.w3.org/1999/xlink" x="0px" y="0px"
	 viewBox="0 0 512 360" style="enable-background:new 0 0 512 360;" xml:space="preserve" fill="#1badc4">
<g>
	<g>
		<path d="M331.756,201.251l-42.881,43.026c-17.389,17.45-47.985,17.826-65.75,0l-42.883-43.026L26.226,355.767
			C31.959,358.418,38.28,360,45,360h422c6.72,0,13.039-1.58,18.77-4.232L331.756,201.251z"/>
	</g>
</g>
<g>
	<g>
		<path d="M467,0H45c-6.72,0-13.041,1.582-18.772,4.233l164.577,165.123c0.011,0.011,0.024,0.013,0.035,0.024
			s0.013,0.026,0.013,0.026l53.513,53.69c5.684,5.684,17.586,5.684,23.27,0l53.502-53.681c0,0,0.013-0.024,0.024-0.035
			c0,0,0.024-0.013,0.035-0.024L485.77,4.232C480.039,1.58,473.72,0,467,0z"/>
	</g>
</g>
<g>
	<g>
		<path d="M4.786,25.212C1.82,31.21,0,37.868,0,45v270c0,7.132,1.818,13.79,4.785,19.788l154.283-154.783L4.786,25.212z"/>
	</g>
</g>
<g>
	<g>
		<path d="M507.214,25.21L352.933,180.005L507.214,334.79C510.18,328.792,512,322.134,512,315V45
			C512,37.866,510.18,31.208,507.214,25.21z"/>
	</g>
</g>
</svg>
