<?xml version="1.0" encoding="iso-8859-1"?>
<!-- Generator: Adobe Illustrator 23.1.1, SVG Export Plug-In . SVG Version: 6.00 Build 0)  -->
<svg version="1.1" id="Calque_1" xmlns="http://www.w3.org/2000/svg" xmlns:xlink="http://www.w3.org/1999/xlink" x="0px" y="0px"
	 viewBox="0 0 512 512" style="enable-background:new 0 0 512 512;" xml:space="preserve" fill="#1cadc4">
<path d="M152,0v480h96V0H152z M168,200h16v16h-16V200z M168,232h16v48h-16V232z M224,416h-48v-16h48V416z M224,392h-48v-16h48V392z
	 M224,368h-48v-16h48V368z M184,120v-16h32v16H184z M224,88h-48V72h48V88z M224,64h-48V48h48V64z"/>
<path d="M264,0v480h96V0H264z M280,200h16v16h-16V200z M280,232h16v48h-16V232z M336,416h-48v-16h48V416z M336,392h-48v-16h48V392z
	 M336,368h-48v-16h48V368z M296,120v-16h32v16H296z M336,88h-48V72h48V88z M336,64h-48V48h48V64z"/>
<path d="M40,0c-8.824,0-16,7.176-16,16v448c0,8.824,7.176,16,16,16h1.754l8,32h28.492l8-32H136V0H40z M48,200h16v16H48V200z M48,280
	v-48h16v48H48z M104,416H56v-16h48V416z M104,392H56v-16h48V392z M104,368H56v-16h48V368z M64,120v-16h32v16H64z M104,88H56V72h48
	V88z M104,64H56V48h48V64z"/>
<path d="M472,0h-96v480h49.754l8,32h28.492l8-32H472c8.824,0,16-7.176,16-16V16C488,7.176,480.824,0,472,0z M400,200h16v16h-16V200z
	 M400,232h16v48h-16V232z M456,416h-48v-16h48V416z M456,392h-48v-16h48V392z M456,368h-48v-16h48V368z M416,120v-16h32v16H416z
	 M456,88h-48V72h48V88z M456,64h-48V48h48V64z"/>
</svg>
