<?xml version="1.0" encoding="UTF-8" standalone="no"?>
<svg width="19px" height="26px" viewBox="0 0 19 26" version="1.1" xmlns="http://www.w3.org/2000/svg" xmlns:xlink="http://www.w3.org/1999/xlink">
    <!-- Generator: Sketch 47.1 (45422) - http://www.bohemiancoding.com/sketch -->
    <title>suppliers-icon</title>
    <desc>Created with Sketch.</desc>
    <defs></defs>
    <g id="Template---Locations" stroke="none" stroke-width="1" fill="none" fill-rule="evenodd">
        <g id="Locations" transform="translate(-240.000000, -1050.000000)" fill="#4F2683">
            <g id="station-map" transform="translate(14.000000, 958.000000)">
                <g id="stations" transform="translate(0.000000, 2.000000)">
                    <g id="map-key" transform="translate(18.000000, -2.000000)">
                        <g transform="translate(15.000000, 15.000000)" id="shop">
                            <g transform="translate(193.000000, 77.000000)">
                                <g id="suppliers-icon">
                                    <polygon id="Fill-2" points="1.76715584 0 1.48892208 1.83451948 16.5959351 1.83451948 16.3153377 0"></polygon>
                                    <polygon id="Fill-3" points="0.332462338 2.6438961 -0.000135064935 5.31548052 18.0853974 5.31548052 17.7500987 2.6438961"></polygon>
                                    <polygon id="Fill-4" points="17.2603532 6.26029351 0.824976623 6.26029351 1.32134026 9.36374805 16.7639896 9.36374805"></polygon>
                                    <polygon id="Fill-5" points="3.16629351 20.9016701 3.95676104 25.8470727 14.1291766 25.8470727 14.9196442 20.9016701"></polygon>
                                    <g id="Group-10" transform="translate(0.675325, 9.976842)">
                                        <path d="M8.32881299,8.41981299 C6.91941039,8.41981299 5.77844935,6.94963117 5.77844935,5.13773506 C5.77844935,3.32347532 6.91941039,1.85396883 8.32881299,1.85396883 C9.73754026,1.85396883 10.8795143,3.32347532 10.8795143,5.13773506 C10.8795143,6.94963117 9.73754026,8.41981299 8.32881299,8.41981299 L8.32881299,8.41981299 Z M0.110787013,0.0988 L1.77478701,10.0723325 L14.882839,10.0723325 L16.5471766,0.0988 L0.110787013,0.0988 Z" id="Fill-6"></path>
                                        <path d="M7.9739974,9.28345195 C8.10230909,9.31012727 8.23433506,9.3259974 8.36771169,9.3259974 C8.50041299,9.3259974 8.63075065,9.31012727 8.7594,9.28345195 L8.7594,1.85758182 C8.63075065,1.83191948 8.50041299,1.81537403 8.36771169,1.81537403 C8.23433506,1.81537403 8.10230909,1.83191948 7.9739974,1.85758182 L7.9739974,9.28345195 Z" id="Fill-8"></path>
                                    </g>
                                </g>
                            </g>
                        </g>
                    </g>
                </g>
            </g>
        </g>
    </g>
</svg>