<?xml version="1.0" encoding="iso-8859-1"?>
<!-- Generator: Adobe Illustrator 23.1.1, SVG Export Plug-In . SVG Version: 6.00 Build 0)  -->
<svg version="1.1" id="Capa_1" xmlns="http://www.w3.org/2000/svg" xmlns:xlink="http://www.w3.org/1999/xlink" x="0px" y="0px"
	 viewBox="2.2 192.201 409.6 409.599" style="enable-background:new 2.2 192.201 409.6 409.599;" xml:space="preserve" fill="#fff">
<path d="M275.28,296.965l-168.315,168.32c-8.069-19.466-13.317-32.118-13.332-32.118c-2.964-7.163-4.434-14.787-4.465-22.395
	c0.031-14.986,5.729-29.967,17.132-41.37l18.452-18.452L9.701,235.899c-9.999-9.999-9.999-26.199,0-36.198
	c9.999-9.999,26.199-9.999,36.198,0l115.051,115.046l18.483-18.483c11.413-11.418,26.399-17.132,41.364-17.132
	c7.619,0.015,15.237,1.5,22.4,4.465l-0.015,0.036C243.183,283.648,255.737,288.85,275.28,296.965z M309.415,311.117L121.122,499.415
	c13.051,31.468,28.713,69.284,42.414,102.385L411.8,353.531C377.737,339.431,340.35,323.932,309.415,311.117z M2.2,576.2
	c0,14.138,11.462,25.6,25.6,25.6s25.6-11.462,25.6-25.6c0-14.138-11.462-25.6-25.6-25.6S2.2,562.062,2.2,576.2z M70.47,550.6
	c0,9.425,7.64,17.065,17.065,17.065s17.065-7.64,17.065-17.065c0-9.425-7.64-17.065-17.065-17.065S70.47,541.175,70.47,550.6z
	 M19.27,499.4c0,9.425,7.64,17.065,17.065,17.065S53.4,508.825,53.4,499.4c0-9.425-7.64-17.065-17.065-17.065
	S19.27,489.975,19.27,499.4z"/>
</svg>
