<?xml version="1.0" encoding="iso-8859-1"?>
<!-- Generator: Adobe Illustrator 23.1.1, SVG Export Plug-In . SVG Version: 6.00 Build 0)  -->
<svg version="1.1" id="Capa_1" xmlns="http://www.w3.org/2000/svg" xmlns:xlink="http://www.w3.org/1999/xlink" x="0px" y="0px"
	 viewBox="35.012 219.888 343.588 354.312" style="enable-background:new 35.012 219.888 343.588 354.312;" xml:space="preserve" fill="#4E3189">
<path d="M234.12,269.16h83.04v83.04h-83.04V269.16z M172.6,537.16v21.04c0,8.837,7.163,16,16,16h174c8.837,0,16-7.163,16-16v-21.04
	c0-8.837-7.163-16-16-16h-174C179.763,521.16,172.6,528.323,172.6,537.16z M191,357.64c-19.687,7.499-30.183,28.981-24,49.12
	c6.24,24.64,8,59.6-9.44,76.8c-6.746,6.804-16.024,10.486-25.6,10.16c-4.314-0.039-8.609-0.575-12.8-1.6
	c-13.587-2.41-25.094-11.4-30.72-24c-15.44-35.84,18.64-95.44,20.08-98c0.64-0.88,33.6-52.48,10.48-86l-6.96,8.88
	c-0.096,0.126-0.194,0.251-0.294,0.374c-5.567,6.862-15.643,7.913-22.506,2.346l-30.08-24c-6.888-5.525-7.998-15.586-2.48-22.48
	l7.28-9.12c-6.147-3.049-12.996-4.402-19.84-3.92c-4.418,0.574-8.466-2.542-9.04-6.96c-0.574-4.418,2.542-8.466,6.96-9.04
	c34.08-4.4,76.08,39.12,80.8,44.08c46.24,41.2,1.12,111.28-0.8,114.24c-8.56,14.88-29.2,59.6-18.96,83.2
	c3.651,7.946,11.04,13.533,19.68,14.88c7.934,3.005,16.878,1.407,23.28-4.16c11.36-11.6,10.56-40.08,4.96-61.6
	c-0.17-0.588-0.331-1.179-0.481-1.772C142.901,379.093,161.025,348.618,191,341V238.12c0-8.837,7.163-16,16-16h137.12
	c8.837,0,16,7.163,16,16v252c0,8.837-7.163,16-16,16H207c-8.837,0-16-7.163-16-16V357.64L191,357.64z M218.12,352.12
	c0,8.837,7.163,16,16,16h82.96c8.837,0,16-7.163,16-16V269c0-8.837-7.163-16-16-16h-82.96c-8.837,0-16,7.163-16,16V352.12z
	 M307.56,386.76h-64c-4.418,0-8,3.582-8,8s3.582,8,8,8h64c4.418,0,8-3.582,8-8S311.978,386.76,307.56,386.76z"/>
</svg>
