<?xml version="1.0" encoding="iso-8859-1"?>
<!-- Generator: Adobe Illustrator 23.1.1, SVG Export Plug-In . SVG Version: 6.00 Build 0)  -->
<svg version="1.1" id="Calque_1" xmlns="http://www.w3.org/2000/svg" xmlns:xlink="http://www.w3.org/1999/xlink" x="0px" y="0px"
	 viewBox="0 0 378.058 378.095" style="enable-background:new 0 0 378.058 378.095;" xml:space="preserve">
<g>
	<g id="XMLID_1_">
		<g>
			<path style="fill:#4E3189;" d="M375.204,239.144c4.6,7.76,2.96,17.07-3.83,21.66l-14.84,10.05c-0.65,0.44-1.21,0.96-1.69,1.54
				l-118.54,79.84c-44.7,30.28-51.93,30.03-93.73,18.11l-88.36-37.8v-95.2l20.03-1.44c36.1-2.61,42.57-0.69,66.53,12.41
				c5.41,2.96,9.64,5.41,13.38,7.57c19.05,11.05,22.17,12.18,52.98,9.97l35.17-2.54c3.79-0.27,7.47,0.96,10.37,3.47
				c2.9,2.52,4.65,5.99,4.92,9.77c0.61,8.52-6.95,13.97-14.24,15.43c-21.3,4.27-41.87,8.07-61.75,11.74
				c-9.96,1.84-20.26,3.75-30.54,5.69c-4.34,0.82-7.19,5-6.37,9.34c0.72,3.84,4.08,6.52,7.85,6.52c0.49,0,0.99-0.05,1.49-0.14
				c10.24-1.94,20.52-3.84,30.47-5.68c19.95-3.68,40.58-7.49,62-11.79c12.24-2.45,21.43-9.99,25.22-19.82l82.28-52.25
				c3.87-2.46,8.75-3.31,13.05-2.28C369.544,233.914,372.984,235.404,375.204,239.144z"/>
			<path style="fill:#4E3189;" d="M309.004,8.254v127.98c0,4.41-3.59,8-8,8H77.034c-4.4,0-7.99-3.59-7.99-8V8.254
				c0-4.41,3.59-8,7.99-8h79.99h4.06h139.92C305.414,0.254,309.004,3.844,309.004,8.254z M281.004,44.244v-12H97.034v12H281.004z
				 M173.084,85.844c0-4.43-3.58-8-8-8h-76.05c-4.41,0-7.99,3.57-7.99,8c0,4.41,3.58,7.99,7.99,7.99h76.05
				C169.504,93.834,173.084,90.254,173.084,85.844z M173.084,124.234c0-4.42-3.58-8-8-8h-19.42c-4.42,0-8,3.58-8,8
				c0,4.42,3.58,8,8,8h19.42C169.504,132.234,173.084,128.654,173.084,124.234z M119.064,124.234c0-4.42-3.58-8-8-8h-22.03
				c-4.41,0-7.99,3.58-7.99,8c0,4.42,3.58,8,7.99,8h22.03C115.484,132.234,119.064,128.654,119.064,124.234z"/>
			<rect x="97.034" y="32.244" style="fill:#FFFFFF;" width="183.97" height="12"/>
			<path style="fill:#FFFFFF;" d="M165.084,77.844c4.42,0,8,3.57,8,8c0,4.41-3.58,7.99-8,7.99h-76.05c-4.41,0-7.99-3.58-7.99-7.99
				c0-4.43,3.58-8,7.99-8H165.084z"/>
			<path style="fill:#FFFFFF;" d="M165.084,116.234c4.42,0,8,3.58,8,8c0,4.42-3.58,8-8,8h-19.42c-4.42,0-8-3.58-8-8
				c0-4.42,3.58-8,8-8H165.084z"/>
			<path style="fill:#FFFFFF;" d="M111.064,116.234c4.42,0,8,3.58,8,8c0,4.42-3.58,8-8,8h-22.03c-4.41,0-7.99-3.58-7.99-8
				c0-4.42,3.58-8,7.99-8H111.064z"/>
			<path style="fill:#4E3189;" d="M38.214,225.814v116.09c0,4.41-3.58,8-7.99,8H8.254c-4.41,0-8-3.59-8-8v-116.09c0-4.41,3.59-8,8-8
				h21.97C34.634,217.814,38.214,221.404,38.214,225.814z"/>
		</g>
		<g>
		</g>
	</g>
</g>
</svg>
