<?xml version="1.0" encoding="iso-8859-1"?>
<!-- Generator: Adobe Illustrator 23.1.1, SVG Export Plug-In . SVG Version: 6.00 Build 0)  -->
<svg version="1.1" id="Calque_1" xmlns="http://www.w3.org/2000/svg" xmlns:xlink="http://www.w3.org/1999/xlink" x="0px" y="0px"
	 viewBox="0 0 512 512" style="enable-background:new 0 0 512 512;" xml:space="preserve" fill="#4E3189">
<path d="M497,60H15C6.715,60,0,66.715,0,75v61c0,8.039,6.309,15.359,14.344,15.016C22.918,150.645,30,157.504,30,166v60
	c0,8.285,6.715,15,15,15h46c8.285,0,15-6.715,15-15v-60c0-16.57,13.43-30,30-30h240c16.57,0,30,13.43,30,30v60
	c0,8.285,6.715,15,15,15h46c8.285,0,15-6.715,15-15v-60c0-8.023,6.285-15.379,14.301-15.016C504.91,151.375,512,144.523,512,136V75
	C512,66.715,505.285,60,497,60L497,60z M497,60 M334.07,30l-3.336-17.77C329.418,5.141,323.223,0,316,0H196
	c-7.223,0-13.418,5.141-14.734,12.23L177.934,30H334.07z M334.07,30 M377.418,262.199C376.547,260.301,376,258.227,376,256v-1.363
	L359.383,166H271v30c0,8.289-6.711,15-15,15s-15-6.711-15-15v-30h-88.379L136,254.637V256c0,2.227-0.547,4.301-1.418,6.199
	L91.266,494.23c-0.836,4.395,0.336,8.922,3.191,12.348C97.312,510.008,101.531,512,106,512h300c4.469,0,8.688-1.992,11.543-5.422
	c2.855-3.426,4.027-7.953,3.191-12.348L377.418,262.199z M271,467c0,8.289-6.711,15-15,15s-15-6.711-15-15v-30
	c0-8.289,6.711-15,15-15s15,6.711,15,15V467z M271,376c0,8.289-6.711,15-15,15s-15-6.711-15-15v-30c0-8.289,6.711-15,15-15
	s15,6.711,15,15V376z M271,286c0,8.289-6.711,15-15,15s-15-6.711-15-15v-30c0-8.289,6.711-15,15-15s15,6.711,15,15V286z M271,286"/>
</svg>
