<?xml version="1.0" encoding="iso-8859-1"?>
<!-- Generator: Adobe Illustrator 23.1.1, SVG Export Plug-In . SVG Version: 6.00 Build 0)  -->
<svg version="1.1" id="Calque_1" xmlns="http://www.w3.org/2000/svg" xmlns:xlink="http://www.w3.org/1999/xlink" x="0px" y="0px"
	 viewBox="0 0 483 512" style="enable-background:new 0 0 483 512;" xml:space="preserve" fill="#fff">
<g>
	<path d="M135.594,256.613H32.926c13.094,35.821,29.601,74.785,48.523,106.176c29.231,48.488,66.399,86.668,85.953,105.113
		c14.34,13.528,28.289,25.059,40.332,33.348c7.578,5.215,13.598,8.582,18.438,10.75V347.191
		C179.434,340.414,142.371,303.352,135.594,256.613L135.594,256.613z M135.594,256.613"/>
	<g>
		<defs>
			<rect id="SVGID_1_" width="483" height="512"/>
		</defs>
		<clipPath id="SVGID_2_">
			<use xlink:href="#SVGID_1_"  style="overflow:visible;"/>
		</clipPath>
		<path style="clip-path:url(#SVGID_2_);" d="M257.059,347.191V511.66c4.707-2.176,10.5-5.465,17.687-10.414
			c12.043-8.289,25.988-19.82,40.332-33.348c19.555-18.441,56.723-56.625,85.953-105.109c18.926-31.391,35.43-70.355,48.52-106.176
			H347.637C340.859,303.352,303.797,340.414,257.059,347.191L257.059,347.191z M257.059,347.191"/>
		<path style="clip-path:url(#SVGID_2_);" d="M225.805,135.199V0h-91.528c-7.339,0-13.664,5.164-15.132,12.352
			c-0.129,0.644-14.282,65.05-111.641,123.406c-5.848,3.504-8.703,10.43-7.031,17.039c0.652,2.566,8.472,33.141,21.695,72.93
			h113.426C142.352,179.109,179.238,142.117,225.805,135.199L225.805,135.199z M225.805,135.199"/>
		<path style="clip-path:url(#SVGID_2_);" d="M347.637,225.727h112.675c13.223-39.786,21.043-70.364,21.692-72.93
			c1.676-6.609-1.18-13.535-7.027-17.039c-50.442-30.231-78.129-62.254-92.469-83.797c-15.035-22.574-18.949-38.652-19.184-39.668
			C361.918,5.039,355.602,0,348.203,0h-91.512v135.098C303.605,141.734,340.84,178.863,347.637,225.727L347.637,225.727z
			 M347.637,225.727"/>
	</g>
	<path d="M241.617,164.914c-42.047,0-76.254,34.211-76.254,76.254c0,42.047,34.207,76.254,76.254,76.254
		c42.043,0,76.25-34.207,76.25-76.254C317.867,199.125,283.66,164.914,241.617,164.914L241.617,164.914z M283.836,234.574
		l-46.082,46.082c-2.902,2.903-6.832,4.524-10.918,4.524c-0.246,0-0.496-0.004-0.75-0.02c-4.348-0.211-8.406-2.246-11.176-5.609
		l-19.707-23.953c-5.418-6.586-4.473-16.317,2.113-21.735c6.586-5.422,16.317-4.476,21.735,2.11l8.898,10.812L262,212.738
		c6.031-6.031,15.809-6.031,21.836,0C289.871,218.766,289.871,228.543,283.836,234.574L283.836,234.574z M283.836,234.574"/>
</g>
</svg>
